<?xml version="1.0" encoding="UTF-8"?>
<svg version="1.1" xmlns="http://www.w3.org/2000/svg" width="512" height="512">
<path d="M0 0 C0.99356506 0.00182281 1.98713013 0.00364563 3.01080322 0.00552368 C17.504692 0.05030022 31.61636097 0.51139787 45.875 3.3125 C46.77057617 3.47347168 47.66615234 3.63444336 48.58886719 3.80029297 C85.86604351 10.54439108 121.34768084 25.93348118 151.875 48.3125 C152.7424585 48.94454346 152.7424585 48.94454346 153.62744141 49.58935547 C160.903389 54.92699563 167.64857031 60.67721323 174.22265625 66.84765625 C176.33211064 68.80798868 178.46445942 70.67304683 180.6875 72.5 C183.76733074 75.10601062 186.3460233 78.00552754 188.94921875 81.08203125 C190.28897712 82.6337595 191.67037062 84.15010269 193.08203125 85.63671875 C205.70992419 98.95822778 215.7717104 114.43030998 224.875 130.3125 C225.30409668 131.06080078 225.73319336 131.80910156 226.17529297 132.58007812 C240.90988722 158.62365478 250.52866675 187.72007286 254.875 217.3125 C255.05232666 218.517854 255.22965332 219.72320801 255.41235352 220.96508789 C257.00764801 232.60111517 257.23453114 244.14324524 257.1875 255.875 C257.18534485 256.84394196 257.1831897 257.81288391 257.18096924 258.81118774 C256.94865241 323.96934465 232.16764272 386.28661761 186.875 433.3125 C186.24287598 433.97185547 185.61075195 434.63121094 184.95947266 435.31054688 C175.81382989 444.80004332 166.52938818 453.55245898 155.875 461.3125 C155.22595703 461.79525391 154.57691406 462.27800781 153.90820312 462.77539062 C143.3787227 470.59470927 132.48269858 477.22502369 120.875 483.3125 C119.88016602 483.84568848 119.88016602 483.84568848 118.86523438 484.38964844 C97.68836028 495.72300066 74.67675146 503.27798272 51.1875 508.0625 C50.21522461 508.26125732 49.24294922 508.46001465 48.24121094 508.66479492 C32.7516267 511.66522667 17.55864381 512.6917132 1.8125 512.625 C0.46662811 512.62226578 0.46662811 512.62226578 -0.90643311 512.61947632 C-15.16915569 512.57083864 -29.0686932 511.89500997 -43.125 509.3125 C-44.47658203 509.07901855 -44.47658203 509.07901855 -45.85546875 508.84082031 C-86.32629306 501.69135523 -126.97357089 484.08592443 -158.55712891 457.62011719 C-160.08774071 456.34357455 -161.6432773 455.09710648 -163.19921875 453.8515625 C-177.55942037 442.24075341 -190.98726464 428.93983446 -201.87890625 414.00732422 C-203.17441202 412.24529423 -204.50524064 410.51469615 -205.84375 408.78515625 C-213.2130522 399.15754038 -219.32916453 388.95039692 -225.125 378.3125 C-225.4869043 377.6520166 -225.84880859 376.9915332 -226.22167969 376.31103516 C-243.91254632 343.62948679 -255.02850273 305.75442925 -255.36328125 268.4765625 C-255.3730751 267.56749649 -255.38286896 266.65843048 -255.39295959 265.72181702 C-255.99229 195.63372511 -234.32754871 130.397911 -185.125 79.3125 C-184.49287598 78.65314453 -183.86075195 77.99378906 -183.20947266 77.31445312 C-174.06502521 67.82619695 -164.76765991 59.0862956 -154.125 51.3125 C-152.97394983 50.45443848 -151.82290823 49.59636549 -150.671875 48.73828125 C-142.48069143 42.69958426 -133.97502651 37.3286491 -125.125 32.3125 C-124.08811035 31.71719482 -124.08811035 31.71719482 -123.03027344 31.10986328 C-100.02590507 18.01866404 -74.74773262 9.39827874 -48.875 4.0625 C-48.1442627 3.91119629 -47.41352539 3.75989258 -46.66064453 3.60400391 C-31.13396833 0.60703369 -15.7747691 -0.06008589 0 0 Z " fill="#0071BB" transform="translate(255.125,-0.3125)"/>
<path d="M0 0 C13.91319759 5.07203524 13.91319759 5.07203524 17.7265625 11.328125 C19.69185268 16.25616419 19.17343405 21.29724271 17.37890625 26.21484375 C14.13030735 32.08101874 7.60366878 35.45623724 2.17480469 39.11962891 C-3.33474167 42.93702646 -8.46939909 47.22395443 -11.49609375 53.27734375 C-11.58271254 56.8287141 -10.66211238 58.07107818 -8.43359375 60.83984375 C-5.67546179 63.12850644 -3.11325418 64.43310288 0.12890625 65.89453125 C4.39287266 68.37716958 7.89605915 71.95908762 11.4765625 75.328125 C14.42398657 77.60211164 14.42398657 77.60211164 18.21484375 77.33984375 C21.5043578 76.58970912 21.5043578 76.58970912 23.0703125 74.4765625 C23.39902344 73.64769531 23.72773438 72.81882812 24.06640625 71.96484375 C24.45570313 70.98773438 24.845 70.010625 25.24609375 69.00390625 C27.12401752 63.44011968 28.8375731 57.83087214 30.44946289 52.18432617 C30.68785889 51.35006104 30.92625488 50.5157959 31.171875 49.65625 C31.38094482 48.90931885 31.59001465 48.1623877 31.80541992 47.39282227 C32.52062567 45.2267063 33.43528869 43.28964595 34.50390625 41.27734375 C39.56617238 42.9609481 41.44173322 47.63381769 43.97265625 51.95898438 C46.63683443 56.34183694 49.29482191 59.29964046 53.50390625 62.27734375 C56.95950724 62.69439904 59.31413512 62.89141917 62.44140625 61.27734375 C65.77002087 59.66347 68.96522446 59.36041085 72.50390625 60.27734375 C75.54658302 62.78346246 77.7464445 65.76242024 79.50390625 69.27734375 C80.08502005 76.36693213 80.08502005 76.36693213 77.62890625 80.21484375 C74.19238047 83.55029525 71.57254924 83.56119133 66.87890625 84.08984375 C61.09064758 84.79945006 55.47321811 85.86019521 49.81640625 87.27734375 C49.14593262 87.44339111 48.47545898 87.60943848 47.78466797 87.78051758 C44.48458131 88.63558205 41.4755799 89.59214148 38.50390625 91.27734375 C38.65550033 93.21857618 38.65550033 93.21857618 39.50390625 95.27734375 C41.48823663 96.62396632 41.48823663 96.62396632 44.06640625 97.58984375 C45.04738281 98.00621094 46.02835938 98.42257813 47.0390625 98.8515625 C48.75416016 99.55732422 48.75416016 99.55732422 50.50390625 100.27734375 C52.62327807 101.16925663 54.73891964 102.06898492 56.85131836 102.97729492 C58.26675571 103.58556215 59.68548965 104.18622478 61.10766602 104.77856445 C67.9450838 107.70025825 67.9450838 107.70025825 69.50390625 110.27734375 C69.65625 112.6953125 69.65625 112.6953125 68.50390625 115.27734375 C65.99577208 117.00677922 63.78802203 118.30107683 61.06640625 119.58984375 C60.3408252 119.94014648 59.61524414 120.29044922 58.86767578 120.65136719 C53.4213986 123.1437929 48.49688213 124.8387321 42.50390625 123.27734375 C39.25390625 121.52734375 39.25390625 121.52734375 36.50390625 119.27734375 C32.38772321 116.1142544 32.38772321 116.1142544 27.50390625 115.27734375 C27.10171875 116.08171875 27.10171875 116.08171875 26.69140625 116.90234375 C25.83541603 118.61432418 24.97705096 120.32511792 24.1171875 122.03515625 C22.95173711 124.37734469 21.80479871 126.72427739 20.671875 129.08203125 C11.78205058 147.45136808 11.78205058 147.45136808 6.50390625 153.27734375 C3.765625 154.09375 3.765625 154.09375 1.50390625 154.27734375 C1.38273437 155.18355469 1.2615625 156.08976563 1.13671875 157.0234375 C0.19590674 163.86241714 -0.8761632 170.56620291 -2.49609375 177.27734375 C-4.87109375 177.40234375 -4.87109375 177.40234375 -7.49609375 177.27734375 C-9.79808222 174.97535528 -9.85686372 174.08695464 -10.37109375 170.96484375 C-11.23292775 166.8093341 -12.33475764 164.25803208 -15.49609375 161.27734375 C-20.83317424 158.74830561 -25.68622067 158.42767852 -31.49609375 159.27734375 C-40.7200798 162.65134699 -49.77387535 169.65808112 -55.18359375 177.90234375 C-56.79216386 182.03866689 -56.90047817 184.06419048 -55.49609375 188.27734375 C-51.77929125 192.25345806 -48.92969924 194.00361048 -43.49609375 194.27734375 C-40.8864347 192.93266299 -40.8864347 192.93266299 -38.55859375 190.90234375 C-34.35896182 187.70655727 -31.74965541 186.39155161 -26.49609375 186.27734375 C-23.49668114 190.1337314 -21.95013547 193.66036823 -20.49609375 198.33984375 C-18.6731042 204.04905133 -17.09666689 207.72380369 -11.80859375 210.8828125 C-8.05724378 212.46209545 -5.42226871 212.61484213 -1.37109375 212.52734375 C-0.17226562 212.511875 1.0265625 212.49640625 2.26171875 212.48046875 C4.89937661 212.3152179 6.98241941 211.94599714 9.50390625 211.27734375 C34.0365616 208.44389379 56.51802327 227.67022747 74.6015625 241.93164062 C75.28089844 242.46337891 75.96023437 242.99511719 76.66015625 243.54296875 C77.25634766 244.02024414 77.85253906 244.49751953 78.46679688 244.98925781 C82.96459712 247.83326477 87.39580873 248.52620604 92.63671875 248.62109375 C93.77238281 248.65074219 94.90804687 248.68039062 96.078125 248.7109375 C98.45312227 248.75535439 100.8281223 248.79962427 103.203125 248.84375 C104.33621094 248.87339844 105.46929687 248.90304687 106.63671875 248.93359375 C108.18190186 248.96163086 108.18190186 248.96163086 109.75830078 248.99023438 C112.5234633 249.27938884 114.18627073 249.76917897 116.50390625 251.27734375 C118.07346022 254.41645169 117.81272112 256.79873945 117.50390625 260.27734375 C116.28320038 262.86641573 114.66405084 265.15768095 113.06640625 267.52734375 C108.67822349 274.54709907 107.53458941 280.39762751 107.75415039 288.62988281 C107.86199636 294.36605571 106.85640525 298.53753435 103.50390625 303.27734375 C100.9453125 305.5703125 100.9453125 305.5703125 98.06640625 307.46484375 C87.86289919 314.6944018 79.56088651 323.68068394 71.81640625 333.4609375 C69.14691667 336.71212328 66.31799569 339.77273393 63.44140625 342.83984375 C49.75999503 357.37920719 49.75999503 357.37920719 46.34765625 376.5 C46.3734375 377.23750488 46.39921875 377.97500977 46.42578125 378.73486328 C46.51707547 381.70591971 46.5556532 384.67628396 46.59765625 387.6484375 C46.64791935 389.94144687 46.70001232 392.23441684 46.75390625 394.52734375 C46.76776367 395.61571533 46.78162109 396.70408691 46.79589844 397.82543945 C46.99860198 404.43788985 48.03686819 409.73996344 50.65527344 415.83105469 C51.57572528 418.48437099 51.73274862 420.48885713 51.50390625 423.27734375 C50.50390625 424.27734375 50.50390625 424.27734375 47.94140625 424.65234375 C40.91117117 423.88540901 35.54985903 419.15871083 31.16796875 413.81640625 C21.15287769 398.53516403 20.17943818 379.29439074 18.73999023 361.60726929 C18.49855363 358.64926513 18.24590493 355.69240172 17.99023438 352.7355957 C17.41617481 346.0856338 16.85229653 339.43482823 16.29492188 332.78344727 C14.66686884 300.1624586 14.66686884 300.1624586 -1.625 273.23046875 C-5.91114808 268.75641021 -7.71005903 264.2553645 -8.12109375 258.08984375 C-7.93957478 252.12447033 -5.48211871 247.74238401 -2.84765625 242.4921875 C-0.81497384 237.65722326 -0.53345738 233.41140441 -1.49609375 228.27734375 C-4.05213266 222.41975457 -7.93743122 220.71548734 -13.49609375 218.27734375 C-15.93381286 217.36491418 -18.38766853 216.5227372 -20.85424805 215.69165039 C-39.98325666 209.22436347 -61.75202854 200.51198757 -74.08203125 183.6875 C-77.86126603 179.9187051 -82.44652815 180.09263986 -87.49609375 180.02734375 C-93.88511994 179.62719597 -93.88511994 179.62719597 -96.37890625 178.19921875 C-102.03724043 171.7223834 -104.38155574 161.89038549 -106.42578125 153.75390625 C-106.67987762 152.76073395 -106.933974 151.76756165 -107.19577026 150.74429321 C-110.29368617 138.41813203 -112.75808184 125.961631 -115.25146484 113.50244141 C-115.87198412 110.4132824 -116.49824636 107.32538537 -117.12890625 104.23828125 C-117.32711975 103.26477722 -117.52533325 102.29127319 -117.72955322 101.28826904 C-119.04823597 94.97668211 -120.67186012 88.94727749 -122.89013672 82.88525391 C-123.84746422 78.76512 -123.18856918 75.62749129 -121.27197266 71.890625 C-120.76069824 71.13136719 -120.24942383 70.37210937 -119.72265625 69.58984375 C-119.15071533 68.73318115 -118.57877441 67.87651855 -117.98950195 66.99389648 C-117.37292725 66.09743408 -116.75635254 65.20097168 -116.12109375 64.27734375 C-115.17206177 62.87947632 -115.17206177 62.87947632 -114.20385742 61.45336914 C-105.84045281 49.24905595 -96.76407441 37.93825515 -86.49609375 27.27734375 C-85.86396973 26.61798828 -85.2318457 25.95863281 -84.58056641 25.27929688 C-76.3898395 16.78061878 -68.13505196 8.62015127 -58.62890625 1.59375 C-56.66215949 0.1395345 -54.73229848 -1.36746265 -52.86328125 -2.9453125 C-39.08515845 -14.08742788 -15.29429397 -5.20510159 0 0 Z " fill="#84BE4B" transform="translate(156.49609375,51.72265625)"/>
<path d="M0 0 C2.296875 1.8203125 2.296875 1.8203125 4.75 4.125 C7.8480907 7.00472307 10.95532168 9.83436508 14.1875 12.5625 C17.46579137 15.42200764 20.30567334 18.48318509 23.109375 21.8046875 C24.43518318 23.34415899 25.80419492 24.84697125 27.203125 26.3203125 C39.83288714 39.6426745 49.89577201 55.11617281 59 71 C59.42909668 71.74830078 59.85819336 72.49660156 60.30029297 73.26757812 C65.60749606 82.64812491 70.09950448 92.22609321 74.0625 102.25 C74.44486816 103.21446045 74.82723633 104.1789209 75.22119141 105.17260742 C81.3370127 121.15541806 80.55229779 137.36041708 74 153 C73.67 153.66 73.34 154.32 73 155 C72.23723592 160.31679717 72.23723592 160.31679717 74.38671875 165.0234375 C75.60954893 166.36563288 76.85129958 167.69078331 78.109375 169 C82.05588348 173.17481888 85.26265351 177.3489309 85.4375 183.25 C84.80746562 188.6502947 84.80746562 188.6502947 83 191 C78.48552368 193.72051411 74.12962877 193.6320173 69 193 C66.34261038 192.10381288 63.82467903 191.0327745 61.2578125 189.90625 C58.29819656 188.71830727 56.14018808 188.40186894 53 189 C50.45997987 190.37283423 50.45997987 190.37283423 49 193 C48.31414363 197.11191798 48.31414363 197.11191798 49 201 C51.72032074 204.6011865 53.16998657 205.86401908 57.671875 206.6015625 C59.03099055 206.62924542 60.39064992 206.6363479 61.75 206.625 C68.04796439 206.78659676 73.19725813 207.45493778 79 210 C80.60745059 213.21490118 80.40305242 215.4301071 80 219 C76.91839206 224.87273645 71.678919 229.59309114 67.19262695 234.41430664 C57.93704389 243.68111984 57.93704389 243.68111984 53.421875 255.41015625 C50.46860469 280.46691434 43.75055754 307.29149291 23.375 324.125 C17.1540204 328.51563884 11.21210943 330.75234735 3.51953125 330.46875 C-3.0409378 329.24819762 -7.58306989 325.01525729 -11.3125 319.6875 C-12.23727385 318.14195254 -13.13456999 316.5795425 -14 315 C-14.37898438 314.34644531 -14.75796875 313.69289063 -15.1484375 313.01953125 C-22.34857507 299.02527891 -21.44625934 281.61097412 -21.36035156 266.33227539 C-21.35175288 263.79256002 -21.37345915 261.25441961 -21.3984375 258.71484375 C-21.38509369 257.95638657 -21.37174988 257.19792938 -21.35800171 256.41648865 C-21.43906302 250.51323354 -23.37282702 246.62017566 -27 242 C-32.08138081 237.17920282 -37.73916464 234.8041187 -44.5625 233.5 C-45.19309326 233.37818359 -45.82368652 233.25636719 -46.47338867 233.13085938 C-53.08109793 231.89857887 -59.74486555 231.00382636 -66.41430664 230.17773438 C-76.31298423 228.87755282 -86.40238479 226.73381023 -93.60546875 219.35546875 C-98.0455063 213.44785577 -97.98350232 207.10307231 -97 200 C-95.96977661 196.17925026 -94.73075105 192.47968249 -93.35546875 188.7734375 C-92.0061364 185.1357802 -91.02863825 181.44606316 -90.0625 177.6875 C-86.84324811 166.3367513 -81.87457811 159.62718572 -71.79296875 153.703125 C-54.85476669 144.6020015 -35.52904057 140.68432847 -16.82397461 146.0480957 C-13.3065009 147.12576947 -9.79382581 148.21820231 -6.28271484 149.31640625 C2.18145069 151.85112962 10.66895883 152.16940243 19.4375 152.25 C20.29093994 152.25950684 21.14437988 152.26901367 22.02368164 152.27880859 C26.74504697 152.25363295 30.56313193 151.81803374 35 150 C33.97377911 146.56668746 32.87485758 145.93201959 29.65625 144.18359375 C28.27713448 143.58678548 26.8912405 143.0054697 25.5 142.4375 C24.77530518 142.12941406 24.05061035 141.82132813 23.30395508 141.50390625 C19.47852756 139.9077399 15.70485188 138.54490089 11.6875 137.5 C-1.26228469 133.80006152 -10.01166166 123.4219131 -19 114 C-19.33 113.67 -19.66 113.34 -20 113 C-19.6390625 113.65484375 -19.278125 114.3096875 -18.90625 114.984375 C-15.39125708 121.89719441 -13.5589475 128.2183165 -15 136 C-16.40625 137.84375 -16.40625 137.84375 -18 139 C-18.66 139 -19.32 139 -20 139 C-20.28721924 138.38479492 -20.57443848 137.76958984 -20.87036133 137.13574219 C-22.17967379 134.33825089 -23.49600531 131.54411807 -24.8125 128.75 C-25.49022461 127.29787109 -25.49022461 127.29787109 -26.18164062 125.81640625 C-26.62314453 124.88183594 -27.06464844 123.94726562 -27.51953125 122.984375 C-27.92276611 122.12553711 -28.32600098 121.26669922 -28.74145508 120.38183594 C-29.97321217 118.05069682 -31.35986021 116.05903191 -33 114 C-37.05942901 115.353143 -37.7738861 117.9108881 -39.625 121.5 C-44.2852658 130.03386047 -50.07172142 137.82491397 -59.47265625 141.41015625 C-65.14470016 142.73392539 -71.61359705 143.32970685 -77.12890625 141.1640625 C-79.36843451 139.72860583 -80.80608937 138.38782127 -82 136 C-82.86168036 129.37737099 -82.04696145 124.95538416 -78.19140625 119.49609375 C-77 118 -77 118 -76 117 C-73.98035801 116.92755947 -71.95832876 116.91622812 -69.9375 116.9375 C-68.83277344 116.94652344 -67.72804688 116.95554687 -66.58984375 116.96484375 C-65.73519531 116.97644531 -64.88054687 116.98804688 -64 117 C-64.0825 115.80375 -64.165 114.6075 -64.25 113.375 C-64.20175637 107.87522653 -61.97202851 105.07171346 -58.22265625 101.1328125 C-50.08086133 93.33973506 -40.40129216 88.52569245 -30.2578125 83.88671875 C-29.6513942 83.60927322 -29.04497589 83.3318277 -28.42018127 83.04597473 C-25.35986065 81.64929865 -22.29372062 80.2721256 -19.21362305 78.91918945 C-9.5825475 74.59214562 -0.28800031 69.74396374 6 61 C7.71184009 55.86447972 8.03118643 51.32772703 5.80078125 46.29296875 C3.3545942 42.08454116 1.21823044 38.59143226 -3 36 C-6.73372378 35.53328453 -9.00103161 35.38951932 -12.25 37.375 C-16.21431362 43.32147043 -17.08409635 49.72208649 -17.4375 56.75 C-17.76570799 61.91623695 -18.14075871 65.23971362 -22 69 C-28.31871765 72.38502731 -34.90733512 73.09424002 -42 72 C-45.22277028 70.35510779 -47.35930566 68.28138868 -49 65 C-50.9046338 47.25969661 -42.23057916 32.81077623 -31.6875 19.25 C-25.87023953 12.4067501 -10.1381751 -4.71354033 0 0 Z " fill="#84BE4B" transform="translate(421,59)"/>
<path d="M0 0 C29.88112123 2.23691075 60.99138314 8.55021772 88 22 C90.28507991 26.57015983 88.5689731 33.01567095 87.21484375 37.73828125 C86.27382667 40.24893005 85.213641 42.61025329 84 45 C83.69707031 45.64582031 83.39414062 46.29164062 83.08203125 46.95703125 C82.0625 48.625 82.0625 48.625 79 51 C76.38671875 51.04296875 76.38671875 51.04296875 73.25 50.8125 C63.73999544 50.37242078 56.82676791 55.14445576 49 60 C48.28859863 60.43795898 47.57719727 60.87591797 46.84423828 61.32714844 C44.77779331 62.61409897 42.72850652 63.92311882 40.6875 65.25 C40.07148926 65.64944824 39.45547852 66.04889648 38.82080078 66.46044922 C34.72708264 69.22659872 31.12387311 72.19031723 29.25 76.875 C28.60223112 82.38103547 29.13355744 87.63996522 29.9765625 93.08203125 C29.98429687 93.71496094 29.99203125 94.34789063 30 95 C27.62839852 97.37160148 26.99378878 97.31983352 23.75 97.375 C19.09139018 97.24018492 16.45571874 96.2911607 13 93 C8.90705321 85.76912733 9.65631127 78.10752904 10 70 C10.01933594 69.2059375 10.03867187 68.411875 10.05859375 67.59375 C10.67537697 57.87474165 14.5325307 47.73218141 18.8125 39.0625 C21.07965366 34.23216307 22.26439862 30.28748515 21 25 C17.30760663 15.94318607 8.19773087 8.97855059 1.28173828 2.34765625 C0 1 0 1 0 0 Z " fill="#83BD4C" transform="translate(275,0)"/>
<path d="M0 0 C-0.29519531 0.72445313 -0.59039062 1.44890625 -0.89453125 2.1953125 C-1.57642933 3.9253578 -2.22683283 5.66867308 -2.82421875 7.4296875 C-6.69168249 18.38458479 -13.81539078 22.83926858 -23.6953125 28.203125 C-29.16661236 30.73767302 -29.16661236 30.73767302 -33 35 C-31.35 35.66 -29.7 36.32 -28 37 C-28 38.32 -28 39.64 -28 41 C-33.93353705 43.96676852 -41.36556689 41.40289447 -47.3125 39.5625 C-48.60377808 39.16695923 -48.60377808 39.16695923 -49.92114258 38.76342773 C-62.12568069 34.86051004 -77.07480799 29.62325172 -86 20 C-86.33 19.01 -86.66 18.02 -87 17 C-58.84262249 6.88199853 -30.13254327 -0.78949895 0 0 Z " fill="#81BD4D" transform="translate(248,0)"/>
</svg>
